# xmcd
#
# Track frame offsets:
#	150
#	12266
#	26421
#	44599
#	58528
#	69282
#	84726
#	95404
#	110047
#	131164
#	141987
#	163527
#	181453
#	206716
#	222240
#
# Disc length: 3171 seconds
#
# Revision: 0
# Processed by: cddbd v1.4PL0 Copyright (c) Steve Scherf et al.
# Submitted via: dBpowerAMP V4.0
#
DISCID=dc0c610f
DTITLE=Trainwreck - wrecked
DYEAR=1900
DGENRE=Dallas Local
TTITLE0=Loretta
TTITLE1=Mexico
TTITLE2=Remember When
TTITLE3=Without You
TTITLE4=Sing Me A Song
TTITLE5=Save Me
TTITLE6=Goodbye Grace
TTITLE7=Only Dancing
TTITLE8=No Place To Go
TTITLE9=Then You Were There
TTITLE10=Old Blevens Road
TTITLE11=Cafe Desire
TTITLE12=Downtown Is Thumping
TTITLE13=Who Needs California
TTITLE14=Tragic Hero
EXTD=Dallas Texas Local
EXTT0=
EXTT1=
EXTT2=
EXTT3=
EXTT4=
EXTT5=
EXTT6=
EXTT7=
EXTT8=
EXTT9=
EXTT10=
EXTT11=
EXTT12=
EXTT13=
EXTT14=
PLAYORDER=
